<svg width="200" height="200" viewBox="43 42 120 120" fill="none" xmlns="http://www.w3.org/2000/svg">
<path d="M89.0129 93.3987L103.333 85.1308L117.654 93.3987V109.935L103.333 118.203L89.0129 109.935V93.3987Z" stroke="black" stroke-width="6"/>
<path d="M108.013 126.399L122.333 118.131L136.654 126.399V142.935L122.333 151.203L108.013 142.935V126.399Z" stroke="black" stroke-width="6"/>
<path d="M127.013 93.3987L141.333 85.1308L155.654 93.3987V109.935L141.333 118.203L127.013 109.935V93.3987Z" stroke="black" stroke-width="6"/>
<path d="M51.0129 93.3987L65.3334 85.1308L79.6539 93.3987V109.935L65.3334 118.203L51.0129 109.935V93.3987Z" stroke="black" stroke-width="6"/>
<path d="M70.0129 126.399L84.3334 118.131L98.6539 126.399V142.935L84.3334 151.203L70.0129 142.935V126.399Z" stroke="black" stroke-width="6"/>
<path d="M108.013 61.0654L122.333 52.7974L136.654 61.0654V77.6013L122.333 85.8692L108.013 77.6013V61.0654Z" stroke="black" stroke-width="6"/>
<path d="M70.0129 61.0654L84.3334 52.7974L98.6539 61.0654V77.6013L84.3334 85.8692L70.0129 77.6013V61.0654Z" stroke="black" stroke-width="6"/>
</svg>
