<svg width="200" height="200" viewBox="43 31 120 120" fill="none" xmlns="http://www.w3.org/2000/svg">
<path fill-rule="evenodd" clip-rule="evenodd" d="M121.442 82.6589C115.613 80.361 109.336 79.1607 102.996 79.1607C89.6715 79.1607 77.138 84.392 67.7051 93.8905C58.3131 103.347 53.0951 115.909 53.0111 129.262L53 131.055L54.5581 131.941C62.0673 136.214 70.5593 138.462 79.1646 138.462C79.4012 138.462 79.6397 138.46 79.8769 138.456C87.378 138.348 94.7991 136.545 101.527 133.216C99.4055 132.029 97.3725 130.693 95.44 129.219C83.7134 133.839 70.4231 133.27 59.1758 127.484C60.2698 104.052 79.5619 85.2818 102.996 85.2818C109.514 85.2818 115.952 86.7236 121.766 89.4633C121.841 87.1949 121.734 84.9212 121.442 82.6589Z" fill="black"/>
<path fill-rule="evenodd" clip-rule="evenodd" d="M152.981 128.846C152.803 112.245 144.719 97.0984 131.243 87.8719C131.253 90.3012 131.091 92.729 130.757 95.1424C140.333 102.961 146.17 114.473 146.809 127.086C126.154 137.729 100.395 130.276 88.6615 109.938C85.4923 104.444 83.5492 98.302 82.9781 92.0259C80.9846 93.113 79.0807 94.3636 77.2833 95.7659C78.2311 101.806 80.2907 107.671 83.3643 112.998C90.0389 124.567 100.77 132.862 113.579 136.353C117.925 137.537 122.343 138.123 126.738 138.123C135.299 138.123 143.77 135.899 151.434 131.54L153 130.648L152.981 128.846Z" fill="black"/>
<path fill-rule="evenodd" clip-rule="evenodd" d="M104.763 44.5729L103.218 43.6667L101.673 44.5715C94.0384 49.0393 87.6958 55.445 83.3302 63.0955C79.5604 69.7026 77.3306 77.1038 76.8077 84.6586C78.8976 83.4163 81.0748 82.324 83.326 81.3905C85.2653 68.9367 92.5076 57.6811 103.215 50.803C122.881 63.448 129.349 89.666 117.536 110.141C114.337 115.686 109.963 120.48 104.781 124.161C106.716 125.342 108.749 126.366 110.861 127.223C115.651 123.339 119.73 118.581 122.833 113.201C136.625 89.2959 128.519 58.5094 104.763 44.5729Z" fill="black"/>
<path fill-rule="evenodd" clip-rule="evenodd" d="M103.187 96.8086C100.37 96.8086 98.0781 99.1023 98.0781 101.922C98.0781 104.741 100.37 107.035 103.187 107.035C106.005 107.035 108.297 104.741 108.297 101.922C108.297 99.1023 106.005 96.8086 103.187 96.8086ZM103.187 113.156C96.9971 113.156 91.9615 108.116 91.9615 101.922C91.9615 95.7271 96.9971 90.6875 103.187 90.6875C109.378 90.6875 114.414 95.7271 114.414 101.922C114.414 108.116 109.378 113.156 103.187 113.156Z" fill="black"/>
<mask id="mask0" mask-type="alpha" maskUnits="userSpaceOnUse" x="0" y="0" width="206" height="204">
</mask>
</svg>
